<?xml version="1.0" standalone="no"?>
<!DOCTYPE svg PUBLIC "-//W3C//DTD SVG 20010904//EN"
 "http://www.w3.org/TR/2001/REC-SVG-20010904/DTD/svg10.dtd">
<svg version="1.0" xmlns="http://www.w3.org/2000/svg"
 width="5000.000000pt" height="2916.000000pt" viewBox="0 0 5000.000000 2916.000000"
 preserveAspectRatio="xMidYMid meet">

<g transform="translate(0.000000,2916.000000) scale(0.100000,-0.100000)"
fill="#000000" stroke="none">
<path d="M0 21434 c0 -6169 3 -7715 13 -7711 6 3 75 30 152 62 1580 641 3456
743 5605 306 1299 -264 2791 -764 4285 -1436 83 -37 218 -93 300 -125 83 -32
220 -86 305 -120 85 -34 326 -120 535 -190 997 -337 1785 -501 2583 -537 310
-15 337 -14 630 5 287 20 326 25 596 77 273 53 303 62 560 152 257 90 285 102
529 234 262 141 310 174 597 399 213 168 541 517 698 742 255 367 299 442 491
828 192 386 223 463 392 953 119 343 312 1119 384 1541 115 681 137 857 215
1776 55 641 81 1501 74 2385 -5 617 -8 687 -135 3400 -71 1524 -144 3094 -163
3490 -29 629 -32 783 -12 724 3 -8 35 -657 71 -1444 37 -786 102 -2166 145
-3065 l79 -1635 -5 880 c-2 484 -9 1510 -14 2280 -15 2296 -16 2979 -5 2985 7
3 12 -344 16 -1025 27 -4210 44 -6130 57 -6275 5 -49 22 297 50 1020 68 1731
149 3752 182 4525 16 391 39 942 51 1225 11 283 23 521 25 529 3 9 8 11 14 5
6 -6 -2 -265 -20 -684 -47 -1074 -105 -2499 -198 -4885 -85 -2167 -87 -2226
-76 -2485 6 -146 11 -256 12 -245 1 11 11 110 22 220 11 110 114 1197 230
2415 344 3625 543 5656 554 5667 18 18 17 -31 -8 -274 -116 -1155 -226 -2290
-451 -4658 -96 -1012 -213 -2238 -259 -2725 l-84 -885 6 -320 c3 -199 9 -309
14 -290 11 41 258 1564 817 5045 370 2304 665 4097 675 4108 20 19 15 -35 -23
-260 -171 -1025 -423 -2574 -876 -5398 -177 -1100 -422 -2617 -535 -3303 l-60
-368 0 -217 c0 -119 3 -269 7 -332 l7 -115 47 190 c88 348 458 1860 644 2631
167 689 375 1563 1034 4334 414 1741 667 2786 683 2820 33 71 8 -52 -111 -542
-175 -717 -325 -1345 -612 -2553 -901 -3790 -1195 -5011 -1545 -6418 l-144
-579 2 -346 3 -345 114 319 c732 2056 1420 4107 2591 7724 835 2579 920 2832
920 2749 0 -6 -63 -201 -139 -433 -182 -549 -353 -1073 -781 -2396 -1139
-3515 -1859 -5661 -2521 -7515 l-193 -540 -3 -350 -2 -350 220 445 c1281 2583
2247 4754 4044 9090 657 1585 846 2035 862 2050 14 13 15 12 10 -10 -3 -14
-176 -434 -385 -935 -209 -500 -523 -1254 -697 -1675 -1582 -3814 -2705 -6323
-3894 -8699 l-163 -324 -9 -298 c-6 -164 -9 -319 -7 -346 l3 -48 136 195
c1401 2007 2731 4211 4101 6795 517 974 846 1620 1850 3624 472 943 862 1719
868 1725 5 5 12 7 15 4 11 -10 -1716 -3454 -2208 -4403 -1251 -2417 -2353
-4339 -3535 -6165 -248 -384 -772 -1165 -1020 -1520 l-219 -315 -7 -215 c-3
-118 -9 -271 -12 -340 l-6 -125 147 145 c181 179 628 645 881 920 1868 2025
3541 4310 5310 7251 549 913 946 1601 2029 3514 457 806 703 1237 715 1249 43
44 -15 -68 -248 -476 -148 -260 -435 -765 -637 -1123 -1618 -2860 -2507 -4329
-3525 -5825 -1423 -2092 -2751 -3726 -4414 -5435 l-259 -266 -18 -287 c-10
-158 -20 -308 -22 -334 -2 -27 -2 -48 0 -48 8 0 310 205 524 356 1647 1159
3146 2521 4584 4164 957 1094 1932 2385 2922 3870 622 934 1109 1709 2233
3555 704 1156 1112 1818 1136 1844 7 8 16 12 20 8 3 -3 -95 -169 -219 -369
-299 -483 -380 -615 -957 -1563 -1155 -1896 -1654 -2688 -2315 -3670 -1782
-2650 -3497 -4646 -5458 -6348 -713 -619 -1579 -1283 -2330 -1786 -76 -50
-140 -97 -142 -104 -4 -12 -45 -595 -45 -643 l0 -25 28 18 c15 11 90 45 167
77 1190 493 2389 1140 3440 1859 2199 1504 4097 3441 6031 6157 693 973 1312
1916 2449 3730 1012 1615 1670 2643 1704 2665 30 18 17 -11 -47 -107 -258
-386 -750 -1158 -1452 -2278 -819 -1308 -1119 -1779 -1553 -2440 -1244 -1898
-2374 -3380 -3530 -4628 -2069 -2234 -4322 -3837 -6954 -4948 -122 -51 -238
-103 -256 -116 -33 -21 -35 -26 -41 -98 -4 -41 -18 -187 -32 -323 -15 -136
-24 -250 -22 -253 3 -2 31 7 63 21 32 14 146 44 254 66 2738 559 5149 1718
7276 3498 668 560 1386 1257 2030 1971 888 985 1793 2171 2769 3628 468 700
825 1258 1714 2682 909 1455 1190 1898 1598 2517 236 358 534 795 548 805 35
23 1 -35 -132 -229 -302 -442 -584 -871 -977 -1488 -264 -414 -414 -654 -1092
-1740 -1057 -1692 -1566 -2475 -2196 -3375 -1524 -2175 -2965 -3771 -4555
-5042 -944 -754 -1875 -1349 -2942 -1877 -1198 -594 -2439 -1026 -3810 -1326
-135 -29 -283 -61 -330 -70 -108 -21 -230 -72 -230 -96 0 -10 -14 -149 -31
-309 -17 -161 -28 -294 -25 -297 3 -3 54 4 113 15 84 16 180 23 433 32 3624
119 6713 1315 9340 3615 398 349 1066 1002 1416 1385 919 1007 1757 2094 2691
3495 546 819 1020 1577 2001 3195 978 1613 1371 2245 1850 2970 338 513 764
1128 793 1145 33 21 7 -22 -113 -192 -630 -885 -1210 -1793 -2398 -3753 -1090
-1799 -1483 -2428 -2055 -3290 -1162 -1751 -2179 -3032 -3295 -4151 -611 -613
-1159 -1092 -1796 -1570 -715 -537 -1403 -963 -2194 -1357 -1896 -947 -3934
-1437 -6316 -1522 -227 -8 -313 -15 -385 -31 -51 -11 -94 -21 -95 -22 -3 -3
-84 -581 -84 -597 0 -13 23 -15 148 -12 114 3 194 -2 357 -22 406 -49 865 -90
1350 -118 296 -17 1488 -18 1760 0 1005 64 1804 181 2635 387 920 228 1734
528 2580 951 467 234 822 436 1222 696 2091 1359 3875 3313 5820 6373 555 874
924 1491 2017 3377 745 1286 1105 1895 1476 2498 484 787 992 1549 1408 2115
191 260 184 251 193 242 10 -10 22 8 -160 -239 -414 -562 -923 -1325 -1406
-2108 -366 -593 -730 -1208 -1472 -2488 -640 -1104 -846 -1459 -1116 -1912
-1314 -2210 -2392 -3754 -3511 -5030 -530 -604 -1179 -1249 -1751 -1740 -1578
-1355 -3375 -2290 -5311 -2764 -1232 -301 -2561 -437 -3911 -398 -692 20
-1289 65 -1898 142 -122 16 -185 19 -296 13 l-142 -6 -12 -81 c-6 -45 -27
-175 -45 -291 -19 -115 -32 -212 -29 -214 2 -3 86 -15 187 -28 133 -16 259
-41 467 -92 3449 -846 6390 -780 8968 198 361 138 688 283 1082 482 2022 1020
3811 2673 5531 5109 654 925 1287 1935 2036 3245 351 614 599 1063 1330 2400
720 1317 1013 1843 1366 2455 752 1303 1452 2374 2079 3181 72 93 135 169 140
169 19 0 4 -25 -65 -113 -245 -307 -640 -858 -941 -1312 -680 -1023 -1260
-2019 -2496 -4280 -1061 -1942 -1444 -2623 -1968 -3500 -1547 -2589 -2977
-4391 -4552 -5736 -1922 -1642 -4117 -2589 -6580 -2838 -488 -50 -706 -61
-1265 -68 -523 -6 -851 3 -1325 38 -1065 77 -2229 267 -3360 549 -169 42 -302
69 -429 86 -102 13 -192 24 -201 24 -13 0 -20 -23 -34 -107 -10 -60 -33 -187
-51 -283 -19 -96 -33 -175 -32 -176 1 -1 109 -29 240 -63 147 -38 345 -100
515 -161 2145 -762 4051 -1169 5872 -1251 526 -24 1356 -3 1845 46 2319 233
4318 1079 6125 2591 1523 1275 2901 2999 4325 5415 639 1082 1174 2078 2275
4234 810 1586 1156 2251 1503 2885 923 1692 1699 2896 2472 3835 137 166 161
192 171 182 4 -3 -45 -68 -108 -144 -758 -913 -1524 -2085 -2395 -3668 -380
-689 -774 -1442 -1508 -2880 -625 -1224 -916 -1787 -1218 -2355 -1499 -2824
-2700 -4636 -4086 -6165 -187 -207 -812 -832 -1006 -1006 -1738 -1561 -3580
-2475 -5722 -2839 -613 -105 -1191 -156 -1878 -167 -1698 -27 -3570 275 -5585
901 -323 100 -872 284 -1154 386 -163 59 -583 180 -668 192 -19 3 -24 -14 -73
-242 -29 -135 -56 -256 -59 -270 -7 -25 -2 -27 256 -124 277 -104 346 -133
763 -321 3630 -1634 6864 -2282 9605 -1924 3029 395 5549 1981 7776 4894 826
1080 1639 2375 2476 3945 560 1050 1017 1975 2008 4065 755 1591 916 1924
1310 2710 731 1456 1293 2447 1888 3335 410 610 901 1245 1241 1602 132 139
102 79 -40 -79 -1000 -1118 -1900 -2544 -3058 -4853 -412 -819 -584 -1177
-1459 -3020 -840 -1772 -1434 -2967 -1939 -3905 -1700 -3152 -3297 -5202
-5173 -6641 -1498 -1149 -3244 -1865 -5095 -2088 -549 -66 -814 -81 -1465 -81
-542 0 -678 5 -1105 40 -2152 178 -4540 866 -7180 2068 -172 78 -795 327 -819
327 -2 0 -6 -15 -10 -32 -3 -18 -29 -135 -58 -260 -28 -125 -50 -230 -47 -232
2 -2 163 -81 358 -175 194 -94 439 -217 545 -275 500 -272 1238 -649 1731
-883 3149 -1498 5916 -2218 8370 -2180 734 12 1298 70 1960 202 1548 310 2915
943 4220 1956 606 470 1258 1093 1836 1754 1254 1435 2467 3377 3690 5905 518
1072 886 1886 1841 4065 949 2165 1316 2967 1825 3985 984 1969 1844 3274
2797 4248 187 190 242 240 253 228 3 -3 -75 -85 -173 -183 -1077 -1071 -2075
-2639 -3239 -5088 -401 -844 -687 -1480 -1550 -3450 -1000 -2282 -1391 -3133
-1992 -4335 -570 -1142 -1019 -1954 -1551 -2810 -1220 -1962 -2511 -3441
-3924 -4493 -2125 -1583 -4566 -2226 -7413 -1952 -2508 242 -5413 1239 -8560
2938 -260 140 -985 502 -1019 509 -16 3 -28 -30 -88 -240 -38 -134 -68 -245
-66 -247 2 -1 113 -65 248 -142 348 -199 638 -371 995 -590 2406 -1475 4678
-2557 6734 -3204 1191 -375 2327 -612 3396 -708 427 -39 585 -46 1095 -46 593
0 887 17 1380 80 2680 345 4952 1715 6929 4180 1229 1532 2341 3453 3538 6115
476 1057 864 1986 1766 4226 958 2377 1309 3212 1772 4219 1034 2248 1947
3694 2951 4675 235 229 615 550 651 550 26 0 9 -17 -95 -96 -361 -274 -785
-695 -1153 -1144 -849 -1037 -1665 -2478 -2604 -4600 -387 -875 -693 -1612
-1445 -3480 -1133 -2814 -1607 -3930 -2251 -5295 -176 -374 -681 -1378 -860
-1710 -811 -1506 -1630 -2746 -2483 -3760 -461 -548 -1053 -1149 -1554 -1578
-809 -693 -1713 -1260 -2626 -1646 -931 -394 -1906 -635 -2931 -725 -626 -55
-1321 -55 -1980 0 -2630 219 -5586 1264 -8955 3167 -445 251 -950 550 -1600
949 -145 88 -712 419 -862 502 l-67 37 -26 -88 c-15 -48 -47 -155 -71 -237
-25 -82 -44 -150 -42 -151 2 -1 154 -101 338 -223 357 -235 662 -440 1116
-749 1066 -727 2283 -1480 3334 -2065 4954 -2754 9045 -3552 12395 -2416 875
296 1754 755 2525 1318 2138 1562 3917 4063 5640 7931 649 1457 1166 2770
2310 5874 1241 3367 1746 4615 2419 5980 644 1306 1272 2280 1919 2978 l82 88
0 945 0 944 -25000 0 -25000 0 0 -7716z"/>
<path d="M49879 27094 c-937 -1046 -1804 -2595 -2776 -4959 -409 -995 -693
-1738 -1495 -3915 -1147 -3114 -1658 -4413 -2319 -5897 -1376 -3090 -2790
-5302 -4383 -6860 -1682 -1645 -3566 -2575 -5726 -2827 -449 -53 -603 -61
-1215 -61 -579 0 -682 4 -1120 45 -2684 253 -5771 1420 -9224 3489 -886 531
-1550 960 -2736 1768 -311 212 -948 631 -965 635 -6 2 -44 -89 -84 -202 -41
-113 -77 -212 -80 -221 -6 -13 66 -69 321 -254 180 -131 564 -415 853 -630
1034 -770 1651 -1210 2485 -1770 5156 -3465 9476 -4982 13045 -4581 2458 277
4573 1467 6402 3602 1509 1762 2848 4194 4163 7564 534 1367 977 2619 1910
5400 787 2346 1101 3244 1496 4282 523 1372 1076 2598 1518 3361 l51 89 -2
1036 -3 1035 -116 -129z"/>
<path d="M49969 25052 c-14 -26 -69 -128 -123 -227 -201 -369 -482 -946 -699
-1435 -555 -1253 -1084 -2686 -2007 -5435 -474 -1413 -657 -1957 -793 -2355
-1074 -3146 -1876 -5153 -2788 -6980 -822 -1644 -1645 -2942 -2568 -4050 -647
-776 -1403 -1494 -2127 -2020 -1964 -1429 -4217 -1996 -6809 -1714 -1707 186
-3525 729 -5565 1664 -294 134 -1162 564 -1455 720 -1709 910 -3410 1988
-5285 3349 -140 101 -482 354 -760 561 -450 335 -801 594 -1133 834 -60 43
-112 75 -116 70 -4 -5 -38 -88 -76 -184 -673 -1726 -1585 -2906 -2750 -3556
-531 -296 -1099 -469 -1795 -546 -184 -20 -854 -17 -1065 5 -1269 134 -2545
575 -4070 1405 -434 237 -1111 643 -1435 862 -31 21 -154 97 -275 170 -121 73
-296 181 -390 240 -93 59 -219 135 -280 170 -60 35 -213 125 -340 200 -126 76
-286 168 -355 205 -69 38 -224 124 -345 193 -121 69 -309 172 -418 229 -109
57 -256 134 -325 172 -362 196 -1361 666 -1722 810 -96 38 -236 95 -310 126
-74 31 -229 90 -345 130 -115 40 -274 96 -353 124 -79 29 -223 74 -320 102
-97 28 -242 70 -322 94 -119 36 -409 105 -442 105 -4 0 -8 -2043 -8 -4540 l0
-4540 25000 0 25000 0 0 12545 c0 6900 -1 12545 -2 12545 -2 0 -15 -22 -29
-48z"/>
<path d="M18978 20161 c-5 -18 -7 -142 -7 -275 l2 -241 12 105 c12 114 6 473
-7 411z"/>
<path d="M18982 19452 c-7 -75 -12 -247 -11 -382 l1 -245 18 100 c15 81 19
154 19 377 1 152 -3 279 -7 282 -5 3 -14 -57 -20 -132z"/>
<path d="M18936 18903 c-10 -135 -26 -477 -22 -480 2 -2 8 45 14 104 12 114
26 463 19 463 -3 0 -7 -39 -11 -87z"/>
<path d="M19008 18865 c-32 -129 -47 -306 -51 -575 l-4 -285 34 130 33 130 -3
315 c-1 173 -5 302 -9 285z"/>
<path d="M18907 18170 c-15 -119 -22 -213 -41 -535 l-5 -80 30 135 c27 119 31
160 36 350 3 118 4 226 2 240 -2 14 -12 -36 -22 -110z"/>
<path d="M18982 18005 c-30 -128 -33 -161 -42 -400 -15 -387 -17 -373 36 -226
l44 123 -2 322 -3 321 -33 -140z"/>
<path d="M18881 17515 c-21 -112 -40 -255 -52 -402 -26 -317 -25 -323 25 -148
l43 150 12 284 c7 156 11 285 9 286 -2 2 -18 -75 -37 -170z"/>
<path d="M18827 17578 c-3 -29 -15 -123 -25 -208 -33 -254 -34 -291 -7 -160
22 105 52 406 42 416 -2 3 -7 -19 -10 -48z"/>
<path d="M18977 17303 c-19 -60 -39 -130 -46 -158 -10 -43 -44 -645 -36 -653
1 -1 13 26 25 60 13 35 39 94 58 132 l34 69 5 328 c4 181 3 329 0 329 -4 0
-22 -48 -40 -107z"/>
<path d="M18767 16937 c-31 -160 -89 -551 -86 -583 0 -5 18 54 41 131 35 123
43 169 64 389 13 138 22 251 21 253 -2 1 -20 -84 -40 -190z"/>
<path d="M18837 16809 c-44 -161 -49 -192 -67 -409 -11 -129 -22 -251 -24
-270 -7 -49 3 -28 64 130 l52 135 14 280 c8 154 13 286 12 294 -2 8 -24 -64
-51 -160z"/>
<path d="M18991 16654 c-8 -16 -34 -78 -58 -139 l-44 -110 -20 -290 c-11 -159
-19 -303 -17 -319 3 -26 9 -18 52 65 27 52 58 105 67 119 16 22 20 66 30 351
6 180 10 332 7 339 -2 7 -10 -1 -17 -16z"/>
<path d="M18660 16478 c0 -4 -21 -111 -46 -238 -25 -128 -44 -234 -41 -236 2
-2 15 36 30 85 26 88 73 378 63 389 -4 3 -6 3 -6 0z"/>
<path d="M18697 16313 c-35 -126 -54 -221 -76 -383 -16 -118 -28 -216 -27
-218 2 -1 28 63 59 142 l56 145 21 231 c12 127 20 236 18 242 -2 5 -25 -66
-51 -159z"/>
<path d="M18793 16147 l-61 -162 -26 -240 c-15 -132 -30 -260 -32 -285 -5 -42
0 -35 67 90 l73 135 22 310 c13 170 22 310 21 312 -2 1 -30 -71 -64 -160z"/>
<path d="M18556 15859 c-32 -101 -119 -498 -112 -506 1 -2 26 54 55 122 48
115 54 139 77 302 13 97 23 184 22 192 -2 8 -21 -41 -42 -110z"/>
<path d="M18973 15938 c-6 -7 -38 -68 -72 -134 l-61 -122 -20 -268 c-11 -148
-22 -288 -25 -311 -4 -24 -4 -43 -1 -43 2 0 41 52 86 115 l81 114 9 223 c5
123 11 271 14 331 3 59 3 107 2 107 -2 0 -8 -6 -13 -12z"/>
<path d="M18632 15732 c-57 -145 -64 -173 -96 -372 -20 -118 -38 -231 -41
-250 -5 -25 14 2 65 95 l72 130 33 275 c19 151 32 276 31 277 -1 2 -30 -68
-64 -155z"/>
<path d="M18732 15477 l-73 -142 -34 -280 c-18 -154 -32 -281 -31 -282 0 -1
37 49 80 110 49 69 83 127 88 152 8 36 49 577 45 581 -1 1 -35 -62 -75 -139z"/>
<path d="M18387 15332 c-47 -150 -89 -304 -83 -309 2 -2 22 43 46 99 37 90 99
342 87 354 -2 2 -24 -62 -50 -144z"/>
<path d="M18468 15341 c-43 -105 -67 -183 -103 -341 -25 -113 -48 -212 -51
-220 -11 -32 15 9 75 116 l62 111 40 228 c22 125 39 231 37 235 -2 4 -28 -54
-60 -129z"/>
<path d="M18544 15123 l-70 -128 -38 -226 c-20 -125 -40 -237 -43 -250 -3 -13
33 27 80 89 50 66 87 126 91 145 12 68 57 478 54 488 -2 6 -35 -47 -74 -118z"/>
<path d="M18914 15182 c-22 -32 -59 -85 -83 -118 l-43 -62 -29 -278 c-15 -154
-31 -297 -34 -319 l-6 -40 99 98 99 99 6 101 c4 56 14 207 22 336 9 129 14
235 13 236 -2 2 -21 -22 -44 -53z"/>
<path d="M18295 14938 c-40 -93 -169 -477 -162 -484 1 -2 32 50 69 114 63 112
68 125 107 296 23 99 40 181 38 183 -2 1 -25 -48 -52 -109z"/>
<path d="M18666 14830 c-47 -66 -86 -129 -86 -138 0 -9 -18 -134 -40 -276 -22
-142 -39 -260 -37 -262 2 -2 45 39 97 91 l93 93 33 304 c18 167 31 304 29 306
-2 2 -42 -51 -89 -118z"/>
<path d="M18360 14795 c-71 -124 -71 -126 -120 -337 -27 -116 -48 -213 -47
-215 2 -1 40 45 84 105 l81 107 40 233 c21 127 38 232 36 232 -1 0 -35 -56
-74 -125z"/>
<path d="M18206 14825 c-9 -26 -7 -32 5 -12 6 10 9 21 6 23 -2 3 -7 -2 -11
-11z"/>
<path d="M18462 14550 l-82 -110 -53 -254 -53 -254 36 28 c19 16 63 57 97 92
l61 63 42 264 c22 145 40 267 38 272 -2 5 -40 -40 -86 -101z"/>
<path d="M18126 14572 c-29 -59 -156 -375 -153 -378 2 -2 26 36 54 84 33 57
64 128 88 206 38 123 41 152 11 88z"/>
<path d="M18165 14458 c-58 -98 -74 -137 -121 -290 -30 -97 -54 -180 -54 -184
0 -4 35 38 79 93 l79 99 37 160 c20 87 41 174 46 193 5 19 7 36 5 38 -2 2 -33
-47 -71 -109z"/>
<path d="M18811 14427 l-93 -94 -29 -274 c-15 -151 -31 -289 -34 -307 -5 -26
-3 -32 7 -26 34 20 198 136 203 144 6 10 47 597 43 628 -3 20 -15 11 -97 -71z"/>
<path d="M18260 14284 c-41 -54 -78 -103 -82 -109 -10 -16 -128 -448 -124
-452 2 -3 45 35 95 84 l92 88 49 235 c28 129 49 239 47 244 -1 4 -36 -36 -77
-90z"/>
<path d="M3025 14324 c-1047 -35 -1970 -218 -2830 -560 l-195 -78 0 -333 0
-333 58 26 c553 249 960 393 1497 529 620 157 1235 248 1930 285 243 13 892
13 1145 0 1457 -74 2941 -374 4630 -936 234 -78 426 -141 427 -139 8 6 -728
304 -1067 432 -1712 647 -3280 1010 -4725 1092 -196 12 -711 20 -870 15z"/>
<path d="M18583 14191 l-93 -99 -40 -267 c-23 -147 -40 -269 -38 -270 8 -8
209 143 213 160 3 11 16 130 30 265 14 135 28 260 30 278 3 17 2 32 -2 32 -4
0 -50 -45 -100 -99z"/>
<path d="M17968 14133 c-56 -91 -185 -380 -175 -390 2 -2 35 36 74 84 69 85
72 93 118 238 25 83 48 156 50 163 9 27 -5 7 -67 -95z"/>
<path d="M18043 14005 c-80 -99 -84 -108 -137 -256 -30 -85 -61 -173 -70 -197
-14 -40 -14 -42 2 -32 9 5 52 42 95 82 l77 73 59 215 c33 118 59 215 58 216
-1 1 -39 -45 -84 -101z"/>
<path d="M17867 14035 c-9 -19 -15 -35 -12 -35 7 0 37 61 33 66 -3 2 -12 -12
-21 -31z"/>
<path d="M18358 13971 l-95 -91 -27 -137 c-16 -76 -38 -185 -51 -243 -13 -58
-22 -106 -20 -108 4 -5 215 137 215 145 0 5 18 123 40 263 21 140 37 256 36
258 -2 2 -46 -37 -98 -87z"/>
<path d="M17748 13783 c-51 -81 -160 -283 -154 -283 2 0 32 34 66 76 48 58 74
102 107 182 24 58 42 107 40 109 -2 2 -29 -36 -59 -84z"/>
<path d="M18128 13752 l-97 -97 -56 -204 c-30 -113 -54 -209 -53 -213 2 -6
162 93 206 127 4 4 103 478 99 481 -2 2 -46 -40 -99 -94z"/>
<path d="M3550 13834 c-30 -2 -134 -8 -230 -14 -1127 -70 -2248 -340 -3176
-766 l-144 -66 0 -324 c0 -178 2 -324 4 -324 1 0 63 29 137 64 713 338 1528
603 2351 765 500 99 981 161 1568 202 246 17 1099 23 1400 10 1443 -63 2943
-323 4543 -787 312 -91 313 -91 263 -64 -107 60 -1146 419 -1626 563 -1341
403 -2525 632 -3750 723 -199 15 -1181 28 -1340 18z"/>
<path d="M17823 13734 c-66 -81 -89 -119 -151 -256 -40 -89 -71 -162 -69 -164
1 -1 41 31 87 71 94 82 83 62 175 323 24 67 42 122 40 122 -2 0 -39 -43 -82
-96z"/>
<path d="M18758 13761 c-54 -37 -101 -70 -104 -74 -3 -3 -23 -126 -45 -274
-21 -147 -41 -282 -44 -300 l-6 -32 118 51 c65 28 119 51 120 52 5 4 64 592
61 616 l-3 28 -97 -67z"/>
<path d="M18515 13594 c-49 -36 -95 -68 -102 -72 -11 -7 -117 -525 -111 -543
6 -15 220 84 229 105 5 12 24 134 44 271 19 138 37 262 40 278 2 15 1 27 -3
26 -4 0 -47 -30 -97 -65z"/>
<path d="M17894 13537 l-91 -82 -66 -189 c-37 -104 -66 -191 -64 -192 3 -3
187 112 200 125 10 10 119 400 115 411 -2 5 -44 -28 -94 -73z"/>
<path d="M17596 13464 c-36 -43 -96 -130 -133 -193 -37 -64 -74 -127 -82 -141
-15 -23 -13 -23 24 7 123 97 143 122 205 262 33 74 58 136 56 138 -2 2 -33
-31 -70 -73z"/>
<path d="M18259 13420 l-105 -68 -62 -243 c-34 -133 -60 -244 -59 -246 4 -4
219 85 229 95 6 7 109 524 105 529 -1 1 -50 -29 -108 -67z"/>
<path d="M17495 13408 c-31 -48 -39 -65 -23 -50 23 21 85 122 75 122 -2 0 -26
-33 -52 -72z"/>
<path d="M17660 13326 l-95 -84 -71 -161 c-40 -89 -70 -161 -67 -161 3 0 49
28 104 61 86 54 100 67 113 103 8 22 37 105 65 184 28 78 49 142 48 142 -2 0
-45 -38 -97 -84z"/>
<path d="M4555 13364 c-1685 -50 -3126 -375 -4437 -1001 l-118 -56 0 -309 0
-308 33 14 c17 8 82 37 142 66 402 190 976 410 1460 559 1011 310 2021 489
3205 567 320 21 1271 30 1640 15 1287 -52 2609 -233 3992 -546 133 -30 243
-53 245 -52 2 2 -45 27 -105 55 -218 102 -1267 394 -1997 556 -1084 240 -2067
377 -3050 426 -218 10 -834 19 -1010 14z"/>
<path d="M18020 13263 c-52 -35 -101 -67 -107 -71 -11 -7 -153 -432 -148 -440
2 -2 55 19 118 45 l116 48 60 240 c33 132 59 240 58 241 -1 1 -45 -27 -97 -63z"/>
<path d="M17375 13212 c-50 -56 -103 -124 -180 -232 l-40 -55 78 65 c76 64 91
84 194 273 10 17 -5 3 -52 -51z"/>
<path d="M17415 13111 c-82 -71 -96 -90 -163 -206 -40 -70 -71 -129 -69 -131
2 -2 46 22 97 54 l95 57 68 148 c38 82 67 150 65 152 -2 2 -44 -31 -93 -74z"/>
<path d="M17751 13091 l-103 -66 -74 -185 c-41 -101 -74 -188 -74 -191 0 -6
218 77 228 86 7 7 133 408 130 415 -2 4 -50 -23 -107 -59z"/>
<path d="M18675 13105 c-55 -24 -104 -46 -109 -48 -5 -1 -26 -119 -47 -261
-21 -142 -41 -273 -45 -291 l-6 -33 114 24 c62 14 120 27 129 30 19 5 19 6 54
332 27 249 29 292 18 291 -5 0 -53 -20 -108 -44z"/>
<path d="M18405 12990 c-65 -29 -112 -56 -117 -67 -7 -19 -98 -480 -98 -499 0
-16 240 37 250 56 4 8 24 128 44 265 20 138 39 260 42 273 2 12 1 22 -3 21 -5
0 -57 -23 -118 -49z"/>
<path d="M17499 12933 l-106 -66 -81 -163 c-45 -90 -79 -164 -75 -164 4 0 56
19 115 43 l107 42 62 150 c60 146 90 225 86 225 -1 0 -50 -30 -108 -67z"/>
<path d="M17172 12907 c-51 -45 -115 -113 -144 -152 -28 -38 -63 -86 -77 -105
l-26 -34 35 21 c173 104 162 95 218 189 56 94 94 164 90 164 -2 -1 -45 -38
-96 -83z"/>
<path d="M18130 12874 c-57 -25 -106 -47 -108 -49 -3 -2 -121 -462 -122 -471
0 -1 57 10 128 25 l127 27 47 229 c25 127 49 242 52 258 7 35 3 35 -124 -19z"/>
<path d="M17050 12853 c-46 -47 -49 -51 -17 -28 32 24 86 85 75 85 -2 0 -28
-25 -58 -57z"/>
<path d="M5405 12894 c-287 -10 -617 -27 -838 -44 -1634 -129 -3111 -505
-4460 -1139 l-107 -50 0 -54 0 -55 165 -157 166 -158 217 86 c1602 635 3316
1000 5217 1112 1643 96 3446 -9 5283 -309 45 -7 82 -12 82 -10 0 2 -61 33
-135 68 -125 60 -155 69 -377 121 -1403 325 -2671 508 -3993 575 -205 10
-1041 20 -1220 14z"/>
<path d="M17243 12777 c-112 -68 -92 -44 -259 -309 l-24 -38 52 20 c29 11 80
30 113 43 l60 23 58 109 c56 104 110 215 104 215 -1 0 -48 -29 -104 -63z"/>
<path d="M17863 12763 l-112 -46 -69 -211 c-38 -116 -68 -212 -68 -213 1 -1
249 49 253 52 2 1 28 98 58 216 31 118 58 222 61 232 7 23 6 23 -123 -30z"/>
<path d="M16906 12688 c-49 -40 -114 -102 -145 -137 l-56 -64 82 49 c54 33 94
66 120 99 70 90 95 125 91 125 -2 0 -44 -33 -92 -72z"/>
<path d="M17594 12654 l-111 -45 -71 -172 c-39 -95 -74 -179 -77 -188 -6 -15
9 -14 121 10 l127 27 24 70 c56 165 110 344 104 343 -3 0 -56 -21 -117 -45z"/>
<path d="M16980 12622 c-80 -49 -107 -73 -168 -148 -41 -49 -83 -101 -94 -117
l-20 -27 54 20 c182 68 160 51 253 198 47 72 81 132 77 132 -4 0 -50 -27 -102
-58z"/>
<path d="M17320 12545 l-105 -42 -83 -158 c-45 -87 -80 -160 -78 -163 3 -3 58
6 122 19 87 18 118 28 126 43 16 30 138 328 138 338 0 12 -5 10 -120 -37z"/>
<path d="M16709 12463 c-71 -40 -120 -79 -185 -145 -78 -78 -85 -87 -54 -75
19 8 67 26 107 41 68 26 75 32 146 119 70 89 92 118 85 117 -2 -1 -46 -26 -99
-57z"/>
<path d="M16607 12455 c-73 -58 -81 -70 -19 -31 32 21 103 87 91 86 -2 -1 -35
-26 -72 -55z"/>
<path d="M18585 12474 c-60 -14 -113 -28 -116 -32 -3 -4 -27 -122 -53 -264
-26 -141 -50 -264 -52 -275 -5 -17 3 -18 133 -15 76 2 139 5 140 6 4 3 83 563
83 585 0 25 3 25 -135 -5z"/>
<path d="M17046 12437 l-108 -42 -89 -137 c-48 -76 -83 -138 -76 -138 7 0 59
9 117 21 71 15 111 28 122 41 23 25 161 298 151 297 -4 0 -57 -19 -117 -42z"/>
<path d="M6535 12439 c-2172 -43 -4157 -419 -5959 -1131 l-230 -91 196 -193
196 -193 128 44 c1142 387 2500 706 3829 899 918 134 1732 207 2855 258 365
17 1809 17 2200 0 614 -26 1506 -81 1720 -107 41 -5 31 2 -100 70 l-145 76
-240 39 c-1501 245 -3023 357 -4450 329z"/>
<path d="M18295 12411 c-101 -22 -120 -29 -123 -46 -2 -11 -28 -125 -59 -253
-30 -129 -53 -235 -51 -236 1 -1 64 0 138 3 l135 6 32 170 c66 356 71 385 59
384 -6 -1 -65 -13 -131 -28z"/>
<path d="M18015 12352 c-66 -14 -121 -26 -122 -27 -1 0 -30 -93 -63 -205 -33
-113 -65 -217 -70 -232 l-8 -26 136 5 c75 3 138 7 140 8 1 1 27 105 57 231 30
126 57 239 60 252 3 12 2 22 -2 21 -5 0 -62 -12 -128 -27z"/>
<path d="M16762 12327 l-102 -42 -89 -110 c-49 -60 -88 -111 -87 -113 3 -3
236 44 240 49 4 4 146 224 160 247 12 20 -12 14 -122 -31z"/>
<path d="M16449 12317 c-78 -43 -242 -157 -235 -164 1 -2 39 10 82 27 65 25
93 43 159 105 44 41 78 74 75 74 -3 0 -39 -19 -81 -42z"/>
<path d="M10795 12310 c69 -33 194 -74 202 -66 6 6 -260 107 -276 105 -3 0 30
-18 74 -39z"/>
<path d="M17728 12291 c-64 -14 -120 -29 -123 -32 -8 -9 -155 -403 -151 -406
2 -2 64 -1 138 3 l135 7 63 216 c35 119 66 222 68 229 5 14 14 16 -130 -17z"/>
<path d="M16500 12229 c-100 -38 -110 -44 -205 -133 l-100 -94 120 24 c66 13
125 30 131 37 29 31 164 198 164 202 0 6 10 10 -110 -36z"/>
<path d="M17441 12231 l-125 -26 -83 -179 c-46 -99 -83 -182 -83 -184 0 -8
264 8 271 16 9 9 151 393 147 397 -2 1 -59 -10 -127 -24z"/>
<path d="M11115 12153 c91 -47 128 -59 210 -74 55 -9 101 -16 103 -15 1 2 -53
26 -120 54 -104 43 -265 93 -295 91 -4 0 42 -25 102 -56z"/>
<path d="M17150 12171 l-124 -26 -87 -155 -88 -155 105 -3 c167 -4 153 -15
246 187 43 95 77 175 76 176 -2 1 -59 -10 -128 -24z"/>
<path d="M16210 12123 c-66 -25 -122 -56 -188 -104 -52 -38 -93 -69 -91 -69 2
0 51 9 107 20 102 19 104 20 170 79 80 70 119 111 106 110 -5 0 -52 -17 -104
-36z"/>
<path d="M16080 12114 c-36 -19 -54 -32 -40 -28 34 9 97 41 105 54 8 14 9 14
-65 -26z"/>
<path d="M16862 12112 l-122 -25 -96 -135 c-52 -74 -93 -136 -91 -138 2 -2 62
-1 133 3 l129 8 88 154 c48 84 87 154 85 155 -2 2 -58 -9 -126 -22z"/>
<path d="M11471 12076 c67 -30 194 -64 205 -54 4 5 -208 75 -251 83 -16 4 4
-10 46 -29z"/>
<path d="M16567 12052 l-118 -25 -100 -114 -100 -113 74 0 c41 0 101 3 133 6
l59 6 85 121 c99 140 104 147 93 146 -4 -1 -61 -13 -126 -27z"/>
<path d="M11455 11983 c126 -65 134 -67 240 -78 61 -7 111 -11 113 -10 1 1
-60 29 -135 63 -99 44 -163 65 -228 76 -49 9 -97 16 -105 15 -8 0 44 -30 115
-66z"/>
<path d="M15920 12017 c-47 -18 -121 -52 -165 -75 -73 -38 -76 -41 -40 -36
114 18 152 32 229 88 44 31 75 56 70 55 -5 0 -47 -15 -94 -32z"/>
<path d="M8055 12019 c-2494 -46 -4846 -415 -6957 -1093 -128 -41 -257 -83
-286 -93 l-52 -18 107 -105 c60 -58 146 -142 193 -188 l85 -82 70 19 c147 41
633 162 920 230 1905 448 3915 750 6050 911 997 74 1867 109 3214 128 l484 7
-149 77 -149 77 -175 15 c-421 38 -995 74 -1515 96 -257 11 -1203 31 -1355 28
-47 -1 -265 -5 -485 -9z"/>
<path d="M16276 11993 l-119 -25 -102 -91 c-56 -51 -101 -93 -100 -94 1 -2 58
0 128 4 l127 6 96 109 c53 60 95 110 93 112 -2 1 -58 -8 -123 -21z"/>
<path d="M11667 11990 c4 -3 60 -29 123 -57 99 -43 128 -51 205 -58 50 -4 88
-5 85 -2 -3 3 -50 22 -105 43 -91 34 -328 91 -308 74z"/>
<path d="M15982 11934 c-108 -22 -116 -26 -217 -95 -58 -39 -105 -72 -105 -73
0 0 57 2 126 6 l126 7 46 42 c108 98 143 131 140 133 -2 2 -54 -8 -116 -20z"/>
<path d="M12051 11916 c17 -18 177 -65 234 -70 l70 -6 -60 21 c-87 29 -256 67
-244 55z"/>
<path d="M15575 11895 c-33 -13 -51 -24 -40 -24 11 -1 43 10 70 23 64 31 47
32 -30 1z"/>
<path d="M15683 11875 c-85 -18 -134 -36 -210 -75 l-98 -50 115 5 115 6 98 66
c53 36 97 67 97 69 0 2 -1 4 -2 3 -2 -1 -53 -12 -115 -24z"/>
<path d="M11802 11805 l146 -74 121 -7 c67 -4 121 -5 121 -2 0 3 -67 35 -149
72 -131 58 -159 67 -242 76 -155 16 -155 15 3 -65z"/>
<path d="M18450 11861 l-94 -6 -53 -264 c-29 -146 -51 -267 -48 -270 9 -8 280
-40 286 -33 7 8 89 526 89 561 0 23 9 23 -180 12z"/>
<path d="M18143 11853 c-92 -4 -93 -4 -99 -31 -4 -15 -31 -123 -60 -240 -30
-117 -54 -217 -54 -221 0 -8 282 -42 289 -35 4 3 78 363 104 502 l7 32 -48 -2
c-26 -1 -89 -4 -139 -5z"/>
<path d="M12000 11841 c8 -5 72 -34 141 -65 l125 -57 109 3 108 3 -140 52
c-106 39 -163 54 -236 62 -116 13 -127 13 -107 2z"/>
<path d="M17850 11841 l-104 -6 -69 -218 c-38 -121 -67 -221 -65 -223 7 -6
280 -36 285 -30 6 6 123 456 123 474 0 7 -12 11 -32 10 -18 -1 -80 -4 -138 -7z"/>
<path d="M17563 11833 c-103 -3 -122 -6 -128 -21 -97 -252 -146 -384 -143
-386 1 -2 67 -9 145 -17 l141 -14 61 190 c72 224 79 256 60 253 -8 -1 -69 -4
-136 -5z"/>
<path d="M15365 11811 c-70 -15 -245 -69 -245 -75 0 -1 42 0 93 2 85 4 99 8
177 48 94 48 92 50 -25 25z"/>
<path d="M17164 11813 c-29 -4 -35 -13 -111 -176 -54 -114 -77 -174 -69 -178
20 -11 269 -31 276 -22 6 7 102 250 136 346 l13 37 -107 -2 c-59 0 -121 -3
-138 -5z"/>
<path d="M12341 11806 c2 -2 51 -22 109 -44 92 -34 119 -40 213 -44 59 -3 106
-3 104 -1 -11 10 -243 74 -302 83 -73 10 -131 13 -124 6z"/>
<path d="M16897 11801 l-67 -6 -89 -152 -89 -152 42 -6 c127 -16 240 -25 247
-18 9 9 159 328 159 337 0 7 -103 5 -203 -3z"/>
<path d="M16638 11793 l-108 -4 -90 -127 c-50 -70 -91 -131 -91 -137 1 -10
259 -37 273 -29 5 3 121 200 175 297 2 4 -8 6 -24 5 -15 -1 -76 -4 -135 -5z"/>
<path d="M16278 11773 l-56 -4 -97 -110 c-54 -60 -96 -111 -94 -113 9 -8 273
-26 279 -19 7 7 103 141 159 221 l22 32 -78 -2 c-43 -1 -103 -3 -135 -5z"/>
<path d="M12785 11740 c69 -23 108 -29 165 -29 l75 1 -100 23 c-55 13 -129 26
-165 29 l-65 6 90 -30z"/>
<path d="M16029 11761 c-87 -5 -111 -10 -130 -26 -141 -120 -179 -160 -162
-166 10 -4 72 -9 138 -13 l120 -6 90 101 c50 56 92 105 93 110 2 5 -7 8 -20 7
-12 -1 -71 -4 -129 -7z"/>
<path d="M14980 11735 c-39 -9 -46 -13 -25 -13 17 0 48 5 70 13 51 16 27 17
-45 0z"/>
<path d="M15691 11743 c-73 -4 -75 -5 -178 -75 -57 -39 -102 -73 -100 -74 1
-2 61 -8 131 -14 l128 -10 99 86 c55 47 99 88 99 90 0 4 -36 3 -179 -3z"/>
<path d="M15350 11721 c-37 -5 -88 -23 -155 -58 l-100 -51 110 -6 c61 -4 119
-9 131 -11 14 -3 51 17 113 60 51 35 96 66 99 69 7 8 -126 5 -198 -3z"/>
<path d="M15124 11710 c-85 -6 -136 -16 -214 -41 l-103 -34 44 -7 c24 -3 80
-7 125 -7 76 -1 86 2 172 44 51 24 92 47 92 50 0 3 -1 4 -2 4 -2 -1 -53 -5
-114 -9z"/>
<path d="M10720 11693 c-2900 -57 -5647 -372 -8185 -938 -568 -127 -1362 -324
-1357 -338 1 -4 86 -86 188 -182 128 -122 190 -174 202 -171 21 6 447 87 847
160 2563 472 5365 865 8160 1145 587 59 1586 151 1638 151 20 0 37 3 37 8 0 4
-68 44 -151 90 l-150 82 -552 -2 c-304 -1 -608 -3 -677 -5z"/>
<path d="M12011 11696 c2 -2 71 -40 152 -85 l149 -82 116 11 c64 6 117 12 119
14 2 1 -64 35 -147 74 l-151 72 -121 0 c-67 0 -119 -2 -117 -4z"/>
<path d="M12320 11698 c0 -3 65 -35 144 -73 l144 -68 117 8 c64 4 113 10 108
15 -4 4 -66 30 -136 59 -125 51 -132 52 -253 58 -68 3 -124 4 -124 1z"/>
<path d="M12651 11686 c2 -2 60 -27 129 -55 l125 -52 95 6 c52 4 102 9 110 12
8 3 -43 25 -115 49 -122 41 -136 44 -239 44 -60 0 -107 -2 -105 -4z"/>
<path d="M14653 11672 c-51 -8 -93 -19 -93 -23 0 -4 38 -9 85 -11 72 -2 98 1
163 24 l77 26 -70 0 c-38 0 -112 -7 -162 -16z"/>
<path d="M13097 11640 c96 -33 121 -38 175 -34 142 11 143 14 23 45 -86 22
-132 28 -210 28 l-100 -1 112 -38z"/>
<path d="M13405 11649 c72 -19 229 -26 239 -10 7 11 -144 31 -234 30 l-75 -1
70 -19z"/>
<path d="M14395 11660 l-40 -7 35 0 c19 -1 49 3 65 7 27 7 27 8 5 7 -14 0 -43
-3 -65 -7z"/>
<path d="M13773 11653 c15 -2 39 -2 55 0 15 2 2 4 -28 4 -30 0 -43 -2 -27 -4z"/>
<path d="M13970 11631 c-18 -5 -1 -11 67 -20 74 -10 106 -10 167 0 41 7 73 16
70 21 -6 10 -269 9 -304 -1z"/>
<path d="M14321 11610 c-51 -11 -95 -21 -98 -23 -2 -3 48 -13 111 -23 l115
-18 96 29 c52 15 95 32 95 36 0 5 -31 9 -69 9 -37 0 -88 2 -112 5 -24 2 -86
-4 -138 -15z"/>
<path d="M13655 11611 l-60 -6 123 -31 123 -32 96 19 c53 10 97 20 99 22 2 2
-47 11 -109 20 -112 17 -161 19 -272 8z"/>
<path d="M14615 11572 l-110 -36 134 -23 135 -24 103 47 c57 26 100 51 96 54
-5 4 -62 10 -128 13 -117 5 -123 4 -230 -31z"/>
<path d="M13370 11593 c-36 -2 -68 -7 -72 -11 -4 -4 51 -27 123 -51 l130 -43
97 18 c53 9 103 20 110 24 17 8 -253 71 -293 68 -16 -1 -59 -3 -95 -5z"/>
<path d="M14935 11536 c-60 -30 -108 -55 -105 -55 3 -1 65 -12 138 -26 l134
-24 105 66 c82 52 101 68 87 73 -11 4 -71 10 -134 13 l-115 7 -110 -54z"/>
<path d="M13081 11569 c-52 -5 -99 -10 -104 -12 -12 -4 267 -117 290 -117 32
0 213 33 213 39 0 7 -281 102 -295 100 -6 -1 -52 -6 -104 -10z"/>
<path d="M14007 11550 c-48 -10 -90 -20 -92 -22 -2 -2 56 -19 129 -38 l132
-34 107 34 c59 18 105 35 103 37 -7 7 -231 43 -261 42 -16 -1 -70 -9 -118 -19z"/>
<path d="M15251 11497 l-113 -72 146 -28 146 -27 106 87 107 88 -59 6 c-32 4
-95 9 -139 12 l-80 6 -114 -72z"/>
<path d="M12733 11543 c-35 -2 -63 -7 -63 -11 0 -4 69 -39 153 -79 l152 -72
117 21 c65 12 116 24 113 26 -3 3 -69 32 -147 64 -153 62 -145 61 -325 51z"/>
<path d="M15571 11455 l-110 -90 150 -29 150 -29 93 99 c51 55 95 104 97 109
2 6 -49 14 -133 20 l-137 10 -110 -90z"/>
<path d="M12465 11519 c-49 -5 -94 -10 -98 -12 -5 -1 64 -42 154 -91 l162 -88
119 22 c66 13 116 26 111 30 -22 21 -312 150 -333 149 -14 -1 -65 -6 -115 -10z"/>
<path d="M2 11337 l3 -188 26 -16 c26 -16 31 -15 145 36 66 29 120 54 121 55
1 1 -65 69 -148 151 l-149 150 2 -188z"/>
<path d="M13720 11495 c-63 -12 -108 -25 -100 -28 8 -4 73 -27 143 -52 l129
-45 106 31 c59 17 111 34 116 37 8 4 -162 54 -254 74 -14 3 -77 -5 -140 -17z"/>
<path d="M14337 11483 c-59 -20 -106 -38 -104 -40 6 -6 256 -73 272 -73 24 0
216 93 208 100 -7 6 -252 52 -264 49 -2 -1 -52 -17 -112 -36z"/>
<path d="M15891 11410 c-57 -60 -101 -110 -99 -110 3 0 69 -14 148 -30 117
-25 146 -28 156 -18 22 23 184 233 184 239 0 3 -37 9 -82 13 -46 3 -110 9
-143 11 l-60 5 -104 -110z"/>
<path d="M11825 11464 c-3274 -297 -6270 -696 -9190 -1225 -586 -106 -1016
-188 -1038 -197 -16 -6 10 -34 150 -162 92 -84 177 -161 188 -171 17 -14 30
-15 95 -8 2509 303 5830 791 8595 1265 701 120 1875 327 1989 350 26 6 12 15
-135 95 -195 106 -131 100 -654 53z"/>
<path d="M16216 11364 c-53 -70 -95 -128 -93 -130 2 -2 69 -17 148 -33 l144
-30 16 21 c31 40 172 269 168 272 -4 5 -219 26 -260 26 -21 0 -43 -23 -123
-126z"/>
<path d="M13412 11438 c-57 -11 -102 -21 -100 -23 2 -1 71 -31 153 -67 l150
-64 119 36 119 37 -34 12 c-175 62 -265 91 -283 90 -11 0 -67 -10 -124 -21z"/>
<path d="M14657 11407 l-108 -52 142 -39 c78 -22 148 -39 154 -39 20 0 216
126 208 134 -9 8 -240 49 -268 48 -11 0 -69 -24 -128 -52z"/>
<path d="M16541 11314 c-51 -80 -91 -147 -89 -149 6 -6 299 -68 302 -64 10 13
166 320 166 327 0 5 -51 14 -113 21 -188 19 -161 32 -266 -135z"/>
<path d="M14056 11394 c-60 -19 -111 -36 -113 -38 -4 -4 280 -106 296 -106 22
0 221 94 214 101 -7 7 -273 80 -284 78 -2 0 -53 -16 -113 -35z"/>
<path d="M16867 11263 c-47 -92 -85 -169 -83 -171 5 -4 300 -71 302 -69 8 9
154 362 154 371 0 8 -40 16 -127 24 -71 7 -135 12 -143 12 -10 0 -48 -62 -103
-167z"/>
<path d="M13145 11389 c-55 -10 -107 -20 -115 -22 -8 -1 56 -39 143 -85 l158
-82 116 34 c63 19 117 37 119 39 4 4 -307 138 -316 136 -3 0 -50 -9 -105 -20z"/>
<path d="M14992 11333 c-56 -36 -101 -68 -98 -70 2 -2 69 -24 149 -47 l144
-43 106 86 c58 47 105 87 103 88 -6 7 -251 53 -276 52 -14 0 -71 -30 -128 -66z"/>
<path d="M17198 11217 c-43 -101 -78 -188 -78 -193 0 -15 288 -80 300 -68 9 9
153 414 147 414 -1 0 -60 7 -132 15 -71 8 -137 15 -145 15 -10 0 -41 -61 -92
-183z"/>
<path d="M17595 11358 c-78 -213 -143 -414 -137 -419 7 -6 295 -79 299 -76 10
10 132 462 126 467 -5 4 -62 13 -128 19 -66 7 -128 15 -138 18 -9 2 -19 -2
-22 -9z"/>
<path d="M12870 11338 c-25 -5 -69 -14 -99 -19 l-53 -11 167 -94 168 -95 106
31 c58 17 113 33 121 36 9 4 -47 37 -140 84 -162 83 -180 87 -270 68z"/>
<path d="M13773 11307 c-56 -18 -104 -35 -107 -38 -3 -3 64 -36 150 -73 l155
-68 110 48 c61 26 112 51 114 54 4 6 -287 110 -307 109 -7 0 -59 -15 -115 -32z"/>
<path d="M14392 11287 c-75 -33 -109 -53 -100 -58 8 -4 78 -31 156 -59 l141
-51 105 61 c94 55 129 80 112 80 -4 0 -71 18 -151 40 -80 22 -146 40 -147 39
-2 0 -54 -24 -116 -52z"/>
<path d="M15325 11253 c-64 -52 -102 -89 -94 -92 8 -2 78 -23 156 -46 l142
-42 102 103 c57 57 101 105 98 108 -4 5 -265 56 -285 56 -7 0 -60 -39 -119
-87z"/>
<path d="M17915 11318 c-21 -69 -125 -443 -125 -452 0 -10 298 -92 305 -84 5
5 115 487 115 503 0 8 -6 15 -12 15 -7 0 -69 7 -138 15 -151 18 -140 18 -145
3z"/>
<path d="M12180 11214 c-3047 -552 -6475 -1076 -9679 -1478 -282 -36 -515 -67
-517 -69 -2 -1 80 -78 182 -170 143 -128 191 -166 208 -162 11 2 84 7 161 10
202 9 829 51 1190 80 2642 216 5212 638 7765 1276 622 155 1494 390 1512 407
9 9 -316 192 -339 191 -10 -1 -227 -39 -483 -85z"/>
<path d="M18220 11193 c-12 -54 -39 -170 -60 -258 -21 -88 -38 -161 -37 -161
4 -4 311 -83 313 -81 1 1 22 119 48 262 26 143 49 269 51 281 4 20 -3 22 -133
38 -75 9 -142 16 -149 16 -6 0 -21 -43 -33 -97z"/>
<path d="M15663 11172 l-101 -108 154 -49 c85 -26 156 -46 157 -44 2 2 33 40
68 84 36 44 79 98 97 121 l31 41 -132 27 c-73 15 -141 30 -153 32 -16 4 -43
-19 -121 -104z"/>
<path d="M13500 11226 c-58 -18 -112 -35 -120 -38 -9 -3 55 -40 152 -89 l167
-83 111 45 c61 25 111 49 111 54 0 6 -311 148 -315 144 -1 -1 -48 -16 -106
-33z"/>
<path d="M14727 11173 l-108 -66 152 -59 c83 -32 156 -58 162 -58 10 0 230
161 225 165 -9 8 -289 85 -304 84 -11 0 -68 -30 -127 -66z"/>
<path d="M14122 11168 c-62 -28 -109 -54 -105 -58 4 -4 77 -38 161 -75 l153
-67 82 48 c45 26 94 55 109 63 16 9 28 19 28 22 0 5 -306 121 -313 118 -1 0
-53 -23 -115 -51z"/>
<path d="M16003 11092 c-50 -64 -93 -121 -95 -126 -2 -7 277 -105 303 -106 7
0 191 281 187 286 -4 3 -284 64 -296 64 -4 0 -48 -53 -99 -118z"/>
<path d="M186 11147 l-119 -52 75 -70 c41 -38 128 -120 194 -181 l119 -111
129 45 130 46 -195 188 c-107 103 -198 187 -204 187 -5 0 -63 -23 -129 -52z"/>
<path d="M13198 11137 c-60 -18 -108 -34 -108 -37 0 -3 53 -35 118 -72 64 -37
140 -81 167 -97 l51 -29 84 35 c47 19 101 41 120 49 l35 15 -160 84 c-88 47
-169 84 -180 84 -11 0 -68 -15 -127 -32z"/>
<path d="M15080 11061 c-74 -56 -107 -87 -98 -92 7 -4 80 -32 161 -63 l148
-56 105 96 c57 54 104 100 104 104 0 4 -69 27 -154 51 l-154 45 -112 -85z"/>
<path d="M16394 11083 c-21 -32 -63 -97 -95 -145 l-59 -87 156 -51 c131 -44
158 -50 169 -39 17 19 165 292 165 305 0 6 -57 23 -127 38 -71 16 -138 30
-150 33 -18 4 -29 -5 -59 -54z"/>
<path d="M0 11104 c0 -8 5 -12 10 -9 6 4 8 11 5 16 -9 14 -15 11 -15 -7z"/>
<path d="M13855 11054 c-60 -25 -113 -49 -117 -52 -4 -4 69 -46 162 -93 l168
-86 109 59 c59 33 111 63 115 67 6 5 -309 152 -323 151 -2 -1 -53 -21 -114
-46z"/>
<path d="M12945 11064 c-334 -102 -1450 -393 -2065 -538 -2635 -622 -5453
-1036 -8095 -1191 -148 -9 -301 -19 -338 -23 l-68 -7 175 -155 c152 -135 181
-156 218 -162 109 -17 1200 -3 1743 22 2900 135 5565 661 8185 1615 236 86
673 255 682 263 8 8 -325 202 -344 201 -7 -1 -49 -12 -93 -25z"/>
<path d="M14485 11029 c-55 -33 -106 -64 -113 -68 -7 -4 51 -37 153 -84 l165
-77 110 82 c75 56 105 85 96 90 -17 10 -299 118 -306 118 -3 -1 -50 -28 -105
-61z"/>
<path d="M13 11073 c-10 -3 -13 -43 -13 -148 l0 -143 87 -76 c48 -42 92 -75
98 -72 6 2 63 23 127 46 l116 43 -81 76 c-324 304 -303 287 -334 274z"/>
<path d="M16680 10912 c-47 -86 -86 -162 -88 -167 -1 -6 68 -34 155 -62 118
-40 159 -50 165 -40 21 32 160 349 155 353 -3 3 -63 18 -133 34 -71 17 -138
32 -149 34 -17 4 -33 -19 -105 -152z"/>
<path d="M15423 10939 l-103 -100 35 -15 c155 -65 279 -114 286 -114 9 0 211
231 206 236 -7 7 -292 94 -306 94 -9 0 -62 -46 -118 -101z"/>
<path d="M13582 10940 c-62 -26 -113 -51 -112 -56 1 -5 77 -53 168 -106 l167
-97 110 59 c60 32 111 62 112 67 2 4 -73 47 -165 94 l-167 87 -113 -48z"/>
<path d="M17083 10953 c-8 -21 -46 -104 -83 -185 l-67 -146 160 -56 c88 -31
162 -55 164 -53 9 10 153 401 148 405 -4 5 -282 72 -298 72 -4 0 -15 -17 -24
-37z"/>
<path d="M14832 10876 c-61 -45 -111 -83 -111 -86 -1 -3 74 -40 165 -82 l167
-78 41 37 c23 20 72 65 109 100 64 60 67 64 45 72 -13 5 -87 33 -164 63 l-141
54 -111 -80z"/>
<path d="M14213 10877 c-62 -34 -112 -64 -113 -67 0 -3 75 -46 167 -96 l168
-91 86 59 c48 33 99 70 114 82 l27 22 -165 77 c-91 42 -167 77 -169 76 -1 0
-53 -28 -115 -62z"/>
<path d="M15775 10817 c-57 -66 -103 -122 -102 -123 7 -6 330 -134 331 -132
33 46 182 256 188 265 6 8 -7 16 -44 27 -29 9 -102 31 -161 50 l-108 34 -104
-121z"/>
<path d="M17359 10705 l-76 -204 81 -29 c196 -71 237 -84 243 -79 7 7 144 439
140 443 -4 5 -286 74 -299 74 -8 0 -44 -84 -89 -205z"/>
<path d="M13150 10769 c-2372 -926 -5006 -1518 -7660 -1723 -744 -58 -1203
-77 -2035 -85 l-680 -6 177 -153 178 -153 272 -19 c1108 -79 2190 -76 3248 10
2235 182 4303 714 6295 1620 236 107 825 399 825 408 -1 10 -336 202 -352 201
-7 0 -128 -45 -268 -100z"/>
<path d="M16153 10728 c-40 -57 -84 -120 -99 -141 -15 -20 -25 -38 -23 -40 2
-2 76 -33 164 -70 125 -52 162 -64 171 -54 16 17 174 285 174 295 0 4 -66 29
-147 56 -82 27 -153 51 -158 53 -6 2 -43 -43 -82 -99z"/>
<path d="M17770 10818 c0 -7 -29 -105 -65 -217 -36 -112 -65 -210 -65 -216 0
-7 66 -36 148 -65 81 -29 152 -55 158 -57 7 -3 17 11 23 29 15 48 121 462 118
464 -3 2 -301 74 -309 74 -5 0 -8 -6 -8 -12z"/>
<path d="M15188 10717 l-107 -102 169 -82 169 -82 102 115 c56 63 99 117 97
120 -5 4 -318 135 -322 134 0 -1 -49 -47 -108 -103z"/>
<path d="M620 10765 c-52 -18 -106 -37 -119 -42 -22 -9 -12 -20 163 -181 102
-95 194 -172 203 -172 20 0 233 57 240 63 7 8 -368 367 -383 366 -5 0 -52 -15
-104 -34z"/>
<path d="M13942 10728 c-61 -34 -111 -62 -110 -64 2 -1 81 -50 176 -108 l172
-106 78 52 c42 28 94 64 115 79 l38 27 -161 87 c-88 48 -168 89 -177 91 -10 2
-69 -24 -131 -58z"/>
<path d="M14580 10695 c-58 -41 -106 -78 -108 -83 -1 -4 74 -50 168 -101 l171
-92 104 91 c57 50 106 94 109 98 3 6 -321 163 -334 161 -3 0 -52 -34 -110 -74z"/>
<path d="M18115 10737 c-9 -29 -125 -476 -125 -484 0 -9 318 -129 324 -122 6
6 118 531 114 534 -2 2 -72 21 -156 43 -108 29 -154 37 -157 29z"/>
<path d="M0 10651 l0 -89 67 26 c38 14 70 28 73 30 5 4 -122 121 -132 122 -5
0 -8 -40 -8 -89z"/>
<path d="M16563 10698 c-21 -28 -175 -299 -172 -302 2 -2 77 -35 167 -74 l162
-71 85 169 c47 94 85 174 85 179 0 8 -290 111 -311 111 -4 0 -11 -6 -16 -12z"/>
<path d="M315 10657 c-60 -24 -108 -47 -106 -52 2 -6 84 -80 183 -166 l180
-157 72 20 c39 12 97 28 129 37 l57 17 -186 169 c-102 94 -193 171 -202 172
-9 1 -66 -17 -127 -40z"/>
<path d="M15552 10565 c-51 -58 -95 -110 -97 -117 -4 -9 52 -42 162 -97 137
-68 169 -80 177 -69 146 192 187 251 180 258 -12 11 -305 130 -318 129 -6 0
-53 -47 -104 -104z"/>
<path d="M13525 10513 c-2234 -1125 -4694 -1773 -7310 -1928 -925 -54 -2042
-45 -2895 25 -163 14 -161 14 -129 -13 15 -12 93 -78 174 -146 l148 -125 77
-12 c140 -23 560 -74 810 -99 987 -99 1999 -116 2940 -50 2302 164 4428 826
6345 1976 293 176 456 281 456 294 -1 10 -326 216 -339 214 -4 0 -128 -61
-277 -136z"/>
<path d="M78 10568 l-78 -31 0 -51 0 -52 128 -104 c70 -57 134 -110 144 -118
14 -12 33 -9 140 23 67 21 124 38 125 39 5 4 -366 326 -374 325 -5 -1 -43 -15
-85 -31z"/>
<path d="M14950 10508 c-58 -50 -106 -94 -108 -98 -1 -4 75 -51 170 -105 l173
-97 103 107 c56 59 102 110 102 114 0 5 -325 172 -333 171 -1 -1 -49 -42 -107
-92z"/>
<path d="M16836 10422 c-48 -96 -83 -179 -79 -183 4 -4 80 -39 168 -77 l159
-69 31 71 c17 39 53 126 80 194 41 103 47 125 35 132 -8 6 -81 32 -161 59
l-146 49 -87 -176z"/>
<path d="M14325 10519 c-55 -39 -104 -74 -108 -78 -12 -12 340 -224 355 -215
27 16 208 169 208 175 0 8 -334 189 -346 188 -5 0 -54 -32 -109 -70z"/>
<path d="M15910 10393 c-55 -75 -100 -137 -98 -138 2 -2 80 -41 173 -88 l171
-85 88 139 c49 77 89 147 90 155 1 15 -9 20 -221 109 l-101 43 -102 -135z"/>
<path d="M17198 10292 c-42 -103 -78 -193 -80 -200 -4 -16 320 -168 332 -156
5 5 40 103 79 217 49 146 67 209 58 212 -6 3 -30 11 -52 19 -22 8 -90 32 -151
54 l-110 40 -76 -186z"/>
<path d="M14134 10392 c-386 -256 -899 -550 -1384 -792 -1537 -769 -3166
-1237 -4940 -1419 -485 -50 -863 -71 -1425 -78 -883 -11 -1729 41 -2629 163
-103 14 -190 24 -191 22 -3 -3 273 -235 316 -266 21 -14 259 -64 589 -122
1262 -223 2507 -292 3680 -205 2180 163 4156 878 5907 2137 300 216 483 362
470 374 -14 13 -343 214 -348 213 -2 0 -22 -12 -45 -27z"/>
<path d="M15319 10311 c-56 -60 -101 -112 -101 -116 0 -4 78 -51 172 -106
l172 -98 26 31 c14 17 61 75 104 129 l78 99 -170 85 c-93 47 -172 85 -174 85
-3 0 -51 -49 -107 -109z"/>
<path d="M1002 10378 c-62 -17 -111 -35 -110 -39 6 -19 361 -329 376 -329 31
0 242 42 242 49 0 12 -363 346 -379 348 -9 1 -67 -12 -129 -29z"/>
<path d="M0 10256 l0 -144 77 24 c43 13 97 29 121 35 23 6 44 15 47 19 3 4
-51 53 -120 109 l-125 102 0 -145z"/>
<path d="M14702 10297 c-87 -71 -109 -94 -99 -103 6 -6 87 -59 178 -117 l167
-105 108 109 c59 60 106 110 103 112 -2 2 -62 37 -134 77 -71 40 -148 83 -170
96 l-41 23 -112 -92z"/>
<path d="M16330 10308 c-22 -35 -64 -101 -94 -148 -29 -47 -51 -88 -47 -91 7
-8 329 -179 336 -179 3 0 122 217 173 316 11 21 4 25 -149 93 -89 39 -165 71
-170 71 -6 0 -27 -28 -49 -62z"/>
<path d="M17551 10134 c-40 -119 -69 -219 -65 -224 5 -4 80 -40 168 -80 111
-51 161 -69 166 -61 10 17 133 461 129 465 -4 3 -318 116 -322 116 -1 0 -35
-97 -76 -216z"/>
<path d="M708 10296 c-60 -17 -108 -33 -107 -36 1 -9 357 -305 371 -308 22 -4
239 42 240 52 0 4 -80 80 -177 167 -118 106 -185 159 -199 158 -11 -1 -69 -15
-128 -33z"/>
<path d="M435 10218 c-55 -16 -104 -33 -108 -38 -7 -6 119 -111 340 -283 12
-9 218 26 251 43 16 8 -341 310 -365 309 -10 -1 -63 -14 -118 -31z"/>
<path d="M15691 10109 c-57 -72 -102 -132 -100 -133 2 -2 76 -45 164 -96 88
-51 166 -97 173 -103 16 -13 12 -18 120 145 68 101 88 139 79 146 -7 5 -84 46
-173 90 l-160 80 -103 -129z"/>
<path d="M16644 10046 l-92 -170 87 -46 c47 -26 126 -67 174 -93 l88 -47 55
116 c91 194 116 256 107 264 -8 8 -103 51 -258 117 l-70 30 -91 -171z"/>
<path d="M17975 10208 c-2 -7 -27 -94 -54 -193 -28 -99 -56 -201 -64 -226
l-14 -47 171 -80 c150 -71 172 -78 178 -63 7 21 105 445 110 479 3 22 -8 28
-137 76 -186 70 -184 70 -190 54z"/>
<path d="M14435 10084 c-301 -239 -816 -594 -1165 -805 -2254 -1356 -4849
-1876 -7760 -1554 -437 49 -949 127 -1369 210 -101 20 -185 35 -187 32 -2 -2
70 -62 160 -134 l164 -130 349 -86 c2129 -526 4055 -576 5823 -151 1557 374
3002 1146 4226 2257 86 78 179 162 206 187 l50 45 -180 113 c-99 61 -183 112
-188 111 -5 0 -63 -43 -129 -95z"/>
<path d="M160 10136 c-58 -18 -111 -35 -119 -37 -8 -3 54 -56 154 -130 93 -68
174 -128 182 -132 12 -8 223 28 251 42 12 7 -337 292 -355 290 -4 0 -55 -15
-113 -33z"/>
<path d="M15078 10064 l-106 -107 147 -95 c196 -127 209 -135 221 -127 15 9
200 225 200 233 0 8 -334 202 -347 202 -5 0 -56 -48 -115 -106z"/>
<path d="M0 9957 l0 -125 51 -32 50 -33 112 23 c62 13 117 26 124 29 10 5
-255 213 -324 254 -10 6 -13 -16 -13 -116z"/>
<path d="M17085 10024 c-8 -19 -46 -104 -86 -190 -39 -85 -70 -156 -68 -158
33 -25 343 -185 349 -179 6 6 109 263 156 386 6 18 -5 24 -264 143 l-72 33
-15 -35z"/>
<path d="M16068 9902 c-54 -80 -96 -147 -95 -148 1 -1 81 -50 177 -108 170
-104 175 -106 190 -86 38 50 171 303 163 310 -4 4 -82 46 -173 93 l-165 86
-97 -147z"/>
<path d="M1392 10007 c-56 -11 -101 -24 -100 -28 2 -4 83 -78 181 -163 137
-120 184 -156 205 -156 40 1 221 26 227 31 2 3 -76 79 -175 170 -135 123 -187
164 -207 166 -16 0 -74 -8 -131 -20z"/>
<path d="M1130 9953 c-63 -13 -119 -25 -125 -26 -5 -2 73 -72 174 -156 155
-129 188 -151 210 -147 14 3 72 10 129 17 57 6 100 15 95 19 -66 60 -351 307
-358 311 -5 3 -62 -5 -125 -18z"/>
<path d="M15461 9829 c-57 -66 -102 -122 -100 -123 2 -2 74 -48 159 -103 85
-54 167 -107 182 -117 l26 -17 101 138 c89 122 99 139 84 150 -30 23 -330 193
-340 193 -5 0 -56 -54 -112 -121z"/>
<path d="M14850 9847 c-300 -290 -762 -666 -1165 -949 -643 -451 -1372 -837
-2101 -1111 -950 -357 -1908 -553 -3014 -617 -375 -22 -1071 -12 -1515 21
-793 58 -1738 218 -2554 429 -85 22 -156 39 -158 37 -2 -2 67 -59 153 -125
l156 -122 157 -49 c1458 -463 2793 -678 4081 -658 780 12 1405 94 2115 277
1304 335 2476 976 3535 1934 262 237 765 755 765 788 0 10 -341 238 -355 237
-3 0 -48 -41 -100 -92z"/>
<path d="M831 9894 c-63 -13 -116 -26 -118 -28 -2 -2 76 -66 173 -141 l178
-138 115 12 c64 7 122 14 129 17 13 4 -340 305 -356 303 -4 -1 -58 -12 -121
-25z"/>
<path d="M17466 9882 c-2 -4 -39 -96 -81 -205 -65 -167 -75 -201 -64 -211 29
-27 332 -187 339 -179 15 16 150 437 142 444 -15 15 -332 157 -336 151z"/>
<path d="M545 9836 c-55 -13 -106 -25 -113 -27 -10 -3 284 -225 333 -251 6 -3
60 1 120 8 61 7 118 13 129 14 11 0 -56 58 -162 140 -99 77 -186 140 -194 139
-7 -1 -58 -11 -113 -23z"/>
<path d="M16468 9727 c-37 -67 -79 -140 -92 -162 l-25 -41 177 -107 c97 -59
181 -107 185 -107 13 0 179 352 170 361 -9 8 -337 179 -344 179 -2 0 -34 -55
-71 -123z"/>
<path d="M0 9776 c0 -27 21 -34 47 -18 9 6 4 13 -17 26 l-30 17 0 -25z"/>
<path d="M300 9785 c-30 -7 -81 -19 -114 -25 l-58 -12 172 -115 172 -114 116
12 c64 6 121 15 125 19 10 9 -325 250 -344 249 -8 -1 -39 -7 -69 -14z"/>
<path d="M65 9735 c-5 -2 -22 -6 -37 -9 -27 -6 -28 -9 -28 -71 l0 -64 84 -50
c94 -57 103 -58 260 -38 l89 12 -169 113 c-93 61 -174 112 -179 111 -6 0 -14
-2 -20 -4z"/>
<path d="M15856 9599 c-53 -72 -97 -134 -99 -139 -3 -11 352 -252 363 -245 15
9 182 274 184 291 1 11 -56 51 -169 120 -93 57 -173 104 -176 104 -4 0 -50
-59 -103 -131z"/>
<path d="M17762 9490 c-41 -121 -71 -224 -68 -229 6 -10 331 -191 343 -191 9
0 148 478 141 485 -9 9 -322 155 -332 155 -6 0 -44 -99 -84 -220z"/>
<path d="M15197 9532 c-184 -200 -572 -582 -747 -736 -1994 -1749 -4437 -2420
-7310 -2005 -720 103 -1475 277 -2225 510 -88 27 -169 52 -180 56 -11 3 47
-47 130 -110 166 -129 121 -107 567 -268 1946 -698 3785 -922 5373 -653 1177
199 2239 657 3185 1374 589 447 1161 1021 1646 1652 l75 98 -128 83 c-70 46
-154 100 -185 120 l-57 36 -144 -157z"/>
<path d="M1812 9651 c-67 -8 -121 -18 -120 -22 2 -4 82 -75 178 -158 l175
-150 60 1 c33 0 92 3 131 7 l72 6 -165 150 c-91 83 -175 157 -187 165 -19 14
-34 14 -144 1z"/>
<path d="M16828 9469 l-87 -180 51 -32 c29 -18 110 -69 182 -114 l131 -82 24
52 c13 29 49 119 81 200 l58 148 -21 13 c-39 24 -320 176 -326 176 -3 0 -45
-81 -93 -181z"/>
<path d="M1506 9614 c-55 -7 -103 -15 -107 -16 -4 -2 72 -67 169 -145 l176
-143 100 1 c183 2 184 -8 -19 167 -117 100 -185 152 -199 151 -11 -1 -66 -7
-120 -15z"/>
<path d="M1185 9576 l-90 -11 85 -66 c47 -36 125 -96 174 -132 l89 -67 129 0
c71 0 128 4 126 9 -1 4 -79 70 -171 145 -189 154 -163 144 -342 122z"/>
<path d="M0 9515 c0 -42 2 -45 28 -45 15 0 44 3 65 6 42 7 43 7 -45 58 l-48
27 0 -46z"/>
<path d="M917 9545 c-54 -7 -100 -14 -102 -17 -3 -3 70 -57 161 -121 l167
-117 129 0 c70 0 128 2 128 4 0 3 -77 64 -170 135 -109 84 -179 131 -193 130
-12 -1 -66 -7 -120 -14z"/>
<path d="M647 9514 c-59 -7 -114 -14 -123 -16 -8 -2 61 -51 153 -110 l167
-108 118 0 c64 0 119 4 122 8 4 7 -280 215 -319 233 -5 3 -58 0 -118 -7z"/>
<path d="M16317 9463 c-14 -21 -59 -91 -100 -155 l-76 -117 184 -126 c101 -69
186 -125 189 -125 6 0 186 325 186 336 0 5 -64 48 -142 94 -78 47 -159 95
-179 108 l-38 23 -24 -38z"/>
<path d="M310 9476 l-95 -11 35 -21 c19 -12 91 -54 160 -94 l125 -72 124 1
c69 1 126 3 127 4 2 1 -69 48 -156 105 -175 113 -156 107 -320 88z"/>
<path d="M110 9454 c-14 -3 -44 -7 -67 -10 -37 -4 -43 -8 -43 -30 0 -21 16
-32 120 -84 l120 -60 122 0 c103 0 120 2 108 13 -31 28 -300 177 -317 176 -10
-1 -29 -3 -43 -5z"/>
<path d="M17226 9277 c-38 -95 -74 -186 -81 -202 l-13 -31 180 -113 c100 -63
183 -110 188 -105 9 10 152 426 148 429 -2 1 -59 32 -128 70 -69 37 -147 81
-175 96 l-50 28 -69 -172z"/>
<path d="M15628 9298 c-949 -1220 -2077 -2096 -3333 -2591 -737 -290 -1476
-450 -2340 -508 -362 -24 -960 -12 -1385 27 -1020 94 -2164 363 -3265 769 -98
36 -179 64 -181 62 -2 -2 54 -46 124 -97 141 -104 215 -139 690 -329 1266
-506 2406 -787 3577 -883 246 -20 1000 -17 1235 5 1037 98 1892 360 2717 833
803 460 1543 1121 2174 1944 171 223 459 631 459 651 0 7 -353 249 -364 249
-2 0 -51 -60 -108 -132z"/>
<path d="M0 9315 l0 -45 85 0 c47 0 85 2 85 5 0 5 -155 85 -165 85 -3 0 -5
-20 -5 -45z"/>
<path d="M2176 9301 l-100 -6 182 -153 182 -153 125 3 125 3 -177 158 c-153
135 -182 157 -208 155 -16 -1 -75 -4 -129 -7z"/>
<path d="M1811 9281 c-21 -6 -5 -21 147 -141 l171 -135 128 -6 c70 -3 129 -5
131 -4 1 1 -75 68 -170 148 l-173 147 -105 -1 c-58 -1 -116 -4 -129 -8z"/>
<path d="M1532 9271 l-44 -6 169 -125 168 -125 128 -5 c70 -3 127 -4 127 -3 0
2 -76 63 -169 138 l-168 135 -84 -2 c-46 0 -104 -4 -127 -7z"/>
<path d="M1223 9261 c-30 -6 -26 -10 133 -118 l164 -111 127 -7 c83 -5 124 -4
118 2 -5 6 -81 63 -168 127 l-157 116 -93 -1 c-50 -1 -106 -4 -124 -8z"/>
<path d="M896 9251 c5 -5 78 -52 162 -105 l152 -95 124 -8 c68 -5 122 -5 120
-2 -2 3 -73 54 -158 113 l-155 106 -127 0 c-77 0 -124 -4 -118 -9z"/>
<path d="M16636 9096 c-49 -90 -90 -168 -90 -172 -1 -4 82 -65 184 -135 l185
-128 87 177 c47 97 87 184 87 192 0 13 -322 221 -353 227 -6 2 -51 -71 -100
-161z"/>
<path d="M10 9241 c8 -5 71 -32 139 -60 94 -39 144 -53 210 -61 159 -18 159
-16 11 60 l-135 69 -120 0 c-74 0 -114 -3 -105 -8z"/>
<path d="M300 9244 c0 -3 66 -37 146 -75 136 -65 152 -70 242 -79 159 -16 159
-17 -3 75 l-150 85 -117 0 c-65 0 -118 -3 -118 -6z"/>
<path d="M745 9161 l160 -89 123 -9 c67 -4 122 -7 122 -6 0 1 -69 45 -153 97
l-153 96 -130 0 -129 0 160 -89z"/>
<path d="M17601 9021 c-39 -115 -71 -213 -71 -219 0 -10 344 -232 359 -232 12
0 145 460 135 470 -14 14 -331 190 -342 190 -5 0 -41 -94 -81 -209z"/>
<path d="M0 9186 c0 -15 7 -27 18 -30 26 -7 158 -19 152 -13 -7 7 -153 67
-162 67 -5 0 -8 -11 -8 -24z"/>
<path d="M16024 9013 c-1330 -1971 -3042 -3063 -5134 -3277 -404 -42 -1072
-47 -1465 -12 -1247 112 -2432 429 -3890 1041 -51 21 -44 15 90 -80 83 -59
166 -106 336 -186 1413 -670 2732 -1077 3914 -1208 554 -62 1117 -67 1600 -15
1188 127 2227 560 3140 1309 669 548 1279 1285 1795 2168 51 87 88 162 84 167
-21 19 -353 240 -361 240 -5 0 -54 -66 -109 -147z"/>
<path d="M195 9089 c96 -32 234 -64 241 -56 2 2 -37 20 -88 39 -63 24 -117 37
-168 41 l-75 5 90 -29z"/>
<path d="M390 9087 c3 -3 57 -26 120 -51 101 -39 284 -85 296 -73 2 2 -49 29
-113 59 -109 52 -125 57 -213 63 -52 4 -93 5 -90 2z"/>
<path d="M675 9062 c6 -5 69 -36 140 -69 103 -48 150 -64 226 -77 53 -9 103
-16 110 -16 8 0 -47 34 -121 74 -131 72 -138 75 -220 81 -47 3 -98 8 -115 11
-17 2 -25 1 -20 -4z"/>
<path d="M970 9038 c3 -3 68 -39 145 -81 135 -73 145 -77 260 -96 66 -11 121
-18 122 -17 1 1 -65 42 -147 93 l-148 90 -119 8 c-65 4 -116 5 -113 3z"/>
<path d="M1325 8982 c33 -21 103 -64 155 -95 89 -53 102 -57 203 -72 59 -9
113 -15 118 -13 6 2 -58 49 -142 105 l-154 101 -120 7 -120 6 60 -39z"/>
<path d="M17031 8833 c-50 -102 -88 -190 -84 -193 24 -21 353 -250 363 -252
12 -3 18 10 118 254 l61 148 -172 108 c-95 60 -177 112 -184 115 -7 5 -43 -59
-102 -180z"/>
<path d="M1725 8894 l160 -108 125 -17 c69 -9 126 -15 128 -14 1 1 -70 55
-158 118 l-161 117 -127 6 -127 6 160 -108z"/>
<path d="M1876 8981 c18 -17 299 -218 319 -228 21 -11 243 -39 250 -31 2 2
-69 60 -159 129 l-163 126 -128 6 c-73 4 -125 3 -119 -2z"/>
<path d="M2180 8968 c13 -14 329 -258 333 -258 123 -15 253 -28 255 -26 1 2
-75 66 -170 144 l-173 141 -90 1 c-49 0 -108 3 -130 6 -36 6 -38 5 -25 -8z"/>
<path d="M2480 8957 c8 -8 89 -74 179 -147 l164 -134 128 -11 c71 -6 129 -10
129 -9 0 1 -78 69 -173 151 l-173 150 -134 7 c-116 6 -133 5 -120 -7z"/>
<path d="M855 8904 c93 -36 234 -78 240 -72 10 10 -173 80 -242 93 -43 8 -80
15 -83 14 -3 0 36 -16 85 -35z"/>
<path d="M1050 8887 c29 -31 410 -170 425 -155 2 2 -49 31 -113 65 -87 45
-135 64 -187 72 -38 6 -83 14 -100 17 -16 4 -28 4 -25 1z"/>
<path d="M16469 8798 c-243 -428 -592 -935 -895 -1298 -1052 -1264 -2338
-2010 -3836 -2224 -369 -53 -490 -61 -978 -61 -474 1 -608 8 -985 56 -1110
140 -2380 528 -3615 1104 -203 95 -230 106 -230 101 0 -13 177 -124 315 -198
1501 -801 2951 -1306 4211 -1468 418 -53 947 -74 1304 -51 791 51 1454 223
2110 547 528 261 972 580 1419 1019 456 449 828 925 1188 1525 168 281 436
782 423 793 -33 26 -362 247 -369 247 -5 0 -33 -42 -62 -92z"/>
<path d="M1470 8770 c124 -64 191 -88 353 -124 29 -7 19 0 -125 83 -126 73
-139 78 -235 94 -56 9 -108 17 -115 17 -7 -1 48 -32 122 -70z"/>
<path d="M1647 8789 c4 -4 71 -43 148 -88 127 -73 152 -83 254 -106 63 -14
115 -24 117 -23 1 2 -63 45 -143 97 l-145 93 -120 17 c-65 10 -115 14 -111 10z"/>
<path d="M17428 8565 l-85 -206 191 -134 c182 -129 191 -134 199 -113 74 200
147 415 143 424 -3 9 -349 234 -360 234 -1 0 -41 -92 -88 -205z"/>
<path d="M1980 8727 c19 -13 89 -58 156 -100 117 -74 125 -78 240 -101 65 -13
120 -23 121 -22 1 1 -67 51 -152 110 l-155 107 -108 15 c-140 18 -143 18 -102
-9z"/>
<path d="M2266 8701 c5 -5 76 -55 157 -111 l148 -103 117 -24 c64 -13 120 -22
125 -20 4 1 -63 56 -150 122 l-158 119 -100 13 c-121 15 -152 16 -139 4z"/>
<path d="M1539 8669 c64 -29 226 -89 239 -88 20 1 -174 90 -225 103 -85 22
-88 19 -14 -15z"/>
<path d="M2560 8677 c0 -3 69 -56 153 -118 83 -62 158 -117 166 -123 12 -10
261 -57 261 -50 0 8 -305 248 -329 259 -14 7 -62 16 -106 19 -44 4 -95 9 -112
12 -18 4 -33 4 -33 1z"/>
<path d="M2877 8633 c12 -10 91 -73 175 -139 l153 -122 125 -20 c69 -11 126
-19 127 -18 2 2 -74 67 -168 147 l-171 144 -77 7 c-42 4 -101 9 -131 12 -54 6
-54 6 -33 -11z"/>
<path d="M1830 8585 c87 -45 160 -73 320 -122 8 -3 -39 26 -105 65 -98 56
-137 73 -213 91 -52 11 -97 21 -100 20 -4 0 40 -24 98 -54z"/>
<path d="M16802 8373 c-457 -872 -921 -1517 -1494 -2079 -356 -348 -743 -645
-1143 -874 -156 -90 -505 -258 -670 -323 -1193 -468 -2541 -506 -4090 -115
-892 224 -1930 627 -2885 1120 -275 142 -60 4 350 -225 1693 -942 3154 -1455
4530 -1593 220 -22 776 -30 996 -15 1060 74 1988 432 2789 1074 701 563 1305
1346 1815 2352 130 257 300 625 300 650 0 8 -78 69 -172 136 -95 67 -178 126
-184 131 -8 6 -52 -69 -142 -239z"/>
<path d="M2031 8566 c2 -2 62 -36 133 -76 87 -48 161 -81 229 -101 54 -17 101
-28 104 -26 2 3 -54 40 -124 84 -118 73 -137 82 -229 102 -100 21 -121 24
-113 17z"/>
<path d="M2335 8502 c6 -5 71 -47 145 -92 116 -72 151 -88 250 -116 63 -18
116 -32 117 -30 2 1 -62 46 -141 100 -139 95 -147 99 -238 117 -51 10 -104 21
-118 25 -16 3 -21 2 -15 -4z"/>
<path d="M2765 8354 c77 -52 152 -102 166 -109 30 -16 229 -68 236 -62 2 3
-62 53 -142 112 l-146 107 -97 19 c-53 10 -110 21 -127 24 -20 4 15 -25 110
-91z"/>
<path d="M2185 8413 c41 -23 194 -89 225 -97 46 -13 -114 73 -174 94 -72 24
-92 25 -51 3z"/>
<path d="M2950 8387 c0 -3 71 -57 158 -120 l157 -114 113 -27 c63 -15 116 -26
118 -23 2 2 -65 58 -149 124 l-152 120 -100 17 c-55 10 -110 20 -122 23 -13 3
-23 3 -23 0z"/>
<path d="M2445 8338 c74 -53 348 -178 362 -165 2 2 -41 31 -96 65 -87 53 -144
76 -266 109 l-20 5 20 -14z"/>
<path d="M3255 8332 c6 -5 80 -64 166 -130 l156 -122 127 -29 c69 -15 126 -27
126 -26 0 2 -66 58 -147 126 -82 67 -155 128 -164 136 -9 8 -61 21 -115 28
-55 8 -112 17 -129 20 -17 3 -25 2 -20 -3z"/>
<path d="M17313 8293 c-95 -230 -278 -610 -412 -858 -1041 -1920 -2453 -2977
-4246 -3180 -1291 -145 -2795 164 -4458 917 -372 168 -851 407 -1124 560 -29
17 -53 28 -53 25 0 -8 540 -330 770 -459 627 -351 1248 -652 1814 -878 2025
-808 3723 -871 5106 -189 1046 516 1898 1446 2562 2799 174 354 447 1003 435
1033 -5 12 -360 267 -372 267 -3 0 -13 -17 -22 -37z"/>
<path d="M2725 8262 c39 -37 258 -156 346 -187 56 -19 104 -34 106 -32 2 2
-53 41 -122 87 -104 69 -140 87 -209 106 -46 12 -94 25 -107 29 -16 5 -21 4
-14 -3z"/>
<path d="M3025 8182 c28 -27 266 -178 305 -193 71 -27 214 -69 204 -61 -5 5
-70 51 -144 104 -126 89 -142 97 -235 122 -55 15 -109 30 -120 33 -13 3 -17 2
-10 -5z"/>
<path d="M2890 8098 c45 -28 201 -100 206 -95 6 6 -140 86 -186 102 -57 20
-61 19 -20 -7z"/>
<path d="M3330 8108 c3 -3 72 -53 153 -111 106 -76 165 -111 205 -123 152 -44
186 -53 172 -41 -9 7 -78 60 -155 118 -138 104 -141 106 -235 127 -52 13 -106
25 -120 29 -14 3 -23 4 -20 1z"/>
<path d="M3640 8038 c0 -3 70 -58 155 -123 l155 -117 117 -34 c64 -19 121 -34
126 -34 5 0 -63 58 -151 129 l-161 128 -108 23 c-59 12 -114 25 -120 27 -7 3
-13 3 -13 1z"/>
<path d="M3135 8018 c68 -50 360 -196 371 -185 2 1 -48 34 -109 73 -95 60
-145 83 -267 122 -8 2 -6 -2 5 -10z"/>
<path d="M3420 7926 c0 -16 270 -170 350 -200 51 -19 95 -34 97 -32 2 1 -55
41 -125 89 -84 58 -150 95 -197 110 -82 28 -125 39 -125 33z"/>
<path d="M3745 7813 c151 -112 261 -176 368 -214 61 -22 108 -36 102 -31 -5 5
-71 54 -145 109 -127 93 -141 101 -235 127 -55 16 -107 31 -115 34 -8 3 3 -8
25 -25z"/>
<path d="M3540 7785 c0 -2 39 -24 86 -50 130 -70 182 -86 84 -26 -46 29 -170
84 -170 76z"/>
<path d="M4025 7743 c6 -5 75 -57 155 -115 132 -95 156 -108 265 -147 66 -23
113 -36 105 -28 -25 23 -253 202 -280 219 -14 9 -69 28 -122 42 -54 15 -106
29 -115 33 -12 4 -15 3 -8 -4z"/>
<path d="M3800 7685 c0 -1 49 -32 109 -69 101 -61 260 -141 267 -133 11 11
-206 141 -285 170 -50 19 -91 34 -91 32z"/>
<path d="M4116 7561 c5 -4 58 -41 118 -81 94 -62 302 -167 312 -157 2 2 -50
42 -115 90 -96 70 -137 93 -217 122 -107 38 -113 39 -98 26z"/>
<path d="M4425 7453 c6 -6 66 -51 135 -100 94 -68 151 -100 229 -131 58 -23
106 -41 107 -39 2 2 -56 49 -129 105 -118 91 -142 105 -227 133 -52 18 -102
34 -110 37 -10 3 -12 2 -5 -5z"/>
<path d="M4294 7384 c62 -37 185 -101 175 -90 -15 15 -139 91 -177 107 -65 28
-64 23 2 -17z"/>
<path d="M4590 7249 c68 -46 309 -174 285 -152 -64 60 -314 203 -354 203 -3 0
28 -23 69 -51z"/>
<path d="M4805 7182 c46 -43 268 -183 349 -218 56 -25 97 -41 91 -36 -54 48
-257 187 -296 202 -136 55 -153 61 -144 52z"/>
<path d="M4968 7012 c36 -28 152 -88 122 -62 -14 11 -52 34 -85 51 -34 17 -50
22 -37 11z"/>
<path d="M5304 6839 c100 -64 265 -155 241 -132 -63 61 -304 203 -343 203 -4
0 42 -32 102 -71z"/>
<path d="M5650 6616 c0 -4 108 -74 148 -95 39 -21 24 -5 -31 31 -57 38 -117
71 -117 64z"/>
</g>
</svg>
